<svg width="81" height="82" viewBox="0 0 81 82" fill="none" xmlns="http://www.w3.org/2000/svg">
<circle cx="40.5" cy="40.7898" r="39.65" stroke="#02006C" stroke-width="1.7"/>
<path d="M66 65.1981L63.3036 56.5708C62.1636 52.9225 58.9855 50.1893 55.2079 49.6078L51.4696 49.0329C51.7575 48.9544 52.083 48.9102 52.4371 48.8742C53.0725 48.8088 53.7939 48.7352 54.4293 48.3672C55.0705 47.9959 55.4966 47.4054 55.872 46.8836C56.1181 46.5426 56.3504 46.2195 56.6047 46.0053C56.8599 45.7902 57.2198 45.6168 57.6 45.4328C58.1766 45.1539 58.8309 44.8374 59.3052 44.2731C59.7788 43.7096 59.9775 43.0112 60.1525 42.3954C60.2686 41.9881 60.3774 41.6037 60.5459 41.3125C60.7111 41.0271 60.9875 40.7442 61.2795 40.444C61.7285 39.9828 62.238 39.4602 62.4923 38.7601C62.7426 38.0731 62.6894 37.3518 62.6436 36.7155C62.6125 36.2902 62.5839 35.8887 62.6428 35.5517C62.6984 35.2336 62.8595 34.8754 63.0296 34.4967C63.2946 33.9071 63.5948 33.2381 63.5948 32.4857C63.5948 31.7333 63.2946 31.0643 63.0296 30.4746C62.8595 30.096 62.6992 29.7386 62.6428 29.4205C62.5839 29.0835 62.6134 28.6819 62.6444 28.2567C62.6911 27.6204 62.7434 26.8991 62.4931 26.2121C62.238 25.512 61.7285 24.9894 61.2795 24.5282C60.9875 24.228 60.7111 23.9451 60.5467 23.6596C60.3782 23.3685 60.2686 22.9841 60.1533 22.5777C59.9783 21.9618 59.7796 21.2634 59.306 20.6991C58.8317 20.134 58.1774 19.8175 57.6009 19.5386C57.2206 19.3546 56.8615 19.1812 56.6056 18.9661C56.3504 18.7518 56.1181 18.4296 55.872 18.0869C55.4974 17.566 55.0721 16.9755 54.431 16.6042C53.7955 16.2362 53.0742 16.1626 52.4379 16.0972C52.0151 16.0538 51.6168 16.0129 51.2978 15.8968C50.9911 15.7847 50.6665 15.5631 50.3213 15.3292C49.7873 14.9661 49.1813 14.5547 48.4436 14.4255C47.728 14.3004 47.0304 14.4762 46.4162 14.6316C45.9991 14.7363 45.6065 14.8361 45.2598 14.8361C44.913 14.8361 44.5205 14.7363 44.1034 14.6316C43.4884 14.4762 42.7932 14.2979 42.076 14.4247C41.3383 14.5539 40.7323 14.9653 40.199 15.3284C39.8539 15.5631 39.5284 15.7847 39.2217 15.896C38.9028 16.0121 38.5045 16.0522 38.0817 16.0963C37.4462 16.1618 36.7249 16.2354 36.0894 16.6034C35.4483 16.9747 35.0222 17.5652 34.6468 18.0869C34.4006 18.428 34.1683 18.751 33.914 18.9653C33.6588 19.1804 33.299 19.3538 32.9187 19.5378C32.3421 19.8167 31.6879 20.1332 31.2135 20.6975C30.74 21.2609 30.5413 21.9594 30.3662 22.5752C30.2501 22.9825 30.1413 23.3669 29.9729 23.658C29.8077 23.9434 29.5312 24.2264 29.2393 24.5265C28.7903 24.9878 28.2808 25.5104 28.0264 26.2105C27.7762 26.8974 27.8293 27.6188 27.8751 28.255C27.9062 28.6803 27.9348 29.0819 27.8759 29.4188C27.8203 29.737 27.6592 30.0952 27.4891 30.4738C27.2241 31.0635 26.924 31.7316 26.924 32.4849C26.924 33.2373 27.2241 33.9063 27.4891 34.4959C27.6592 34.8746 27.8195 35.232 27.8759 35.5501C27.9348 35.887 27.9054 36.2886 27.8743 36.7139C27.8277 37.3501 27.7754 38.0715 28.0256 38.7585C28.2808 39.4585 28.7903 39.9811 29.2393 40.4424C29.5312 40.7425 29.8077 41.0255 29.972 41.3109C30.1405 41.6021 30.2501 41.9864 30.3654 42.3929C30.5404 43.0087 30.7392 43.7072 31.2127 44.2715C31.687 44.8366 32.3413 45.1531 32.9179 45.432C33.2982 45.616 33.6572 45.7894 33.9132 46.0044C34.1683 46.2187 34.4006 46.5409 34.6468 46.8836C35.0213 47.4046 35.4466 47.995 36.0878 48.3663C36.2792 48.4768 36.4795 48.5553 36.6815 48.6207L35.225 49.3518C35.9144 50.7225 36.2636 52.202 36.2636 53.7485C36.2636 59.1601 31.8612 63.5625 26.4496 63.5625C21.0381 63.5625 16.6357 59.1601 16.6357 53.7485C16.6357 50.617 18.1503 47.6475 20.6864 45.8041L19.7246 44.4808C16.7665 46.6309 15 50.0961 15 53.7485C15 59.7857 19.7001 64.7344 25.6318 65.1564V65.1981H66ZM45.2598 48.0237C39.8482 48.0237 35.4458 43.6213 35.4458 38.2097H55.0738C55.0738 43.6213 50.6714 48.0237 45.2598 48.0237ZM49.3489 48.8914V49.3208L45.2598 53.4099L41.1706 49.3208V48.8914C42.4424 49.3805 43.8179 49.6593 45.2598 49.6593C46.7016 49.6593 48.0772 49.3805 49.3489 48.8914ZM39.0508 49.0329L37.0038 49.3477C36.9024 49.1048 36.8099 48.8603 36.6905 48.6223C37.1567 48.772 37.6392 48.8276 38.0817 48.8734C38.4366 48.9102 38.7629 48.9544 39.0508 49.0329ZM33.8445 38.8877C32.877 38.5589 32.1745 37.6511 32.1745 36.574C32.1745 35.4969 32.877 34.5891 33.8445 34.2604C33.8314 34.4861 33.8101 34.7094 33.8101 34.9384V38.2097C33.8101 38.4387 33.8314 38.662 33.8445 38.8877ZM32.2996 33.2193C32.4926 31.7652 32.9236 30.3888 33.5542 29.1244L34.9723 29.9439C34.5732 30.7617 34.2616 31.6294 34.0661 32.5413C33.4176 32.6313 32.8148 32.8611 32.2996 33.2193ZM34.3654 27.7038C35.3313 26.2554 36.5769 25.0099 38.0252 24.044L38.8431 25.4605C37.6392 26.2783 36.5989 27.3178 35.7819 28.5217L34.3654 27.7038ZM45.2598 25.1244C50.6714 25.1244 55.0738 29.5268 55.0738 34.9384V36.574H35.4458V34.9384C35.4458 29.5268 39.8482 25.1244 45.2598 25.1244ZM39.4466 23.2327C40.9694 22.473 42.6566 22.006 44.4428 21.8948V23.5304H44.4419C42.9527 23.6367 41.5444 24.0285 40.2653 24.6517L39.4466 23.2327ZM46.0776 23.5304V21.8948C47.8638 22.006 49.5509 22.4738 51.0737 23.2327L50.2543 24.6517C48.9752 24.0277 47.5669 23.6367 46.0776 23.5304ZM56.6751 34.2604C57.6426 34.5891 58.3451 35.4969 58.3451 36.574C58.3451 37.6511 57.6426 38.5589 56.6751 38.8877C56.6882 38.662 56.7094 38.4387 56.7094 38.2097V34.9384C56.7094 34.7094 56.6882 34.4861 56.6751 34.2604ZM56.4526 32.5413C56.2572 31.6286 55.9456 30.7617 55.5465 29.9439L56.9646 29.1244C57.5951 30.3879 58.0261 31.7652 58.2183 33.2193C57.7039 32.8611 57.1012 32.6321 56.4526 32.5413ZM54.7376 28.5225C53.9198 27.3186 52.8803 26.2783 51.6765 25.4613L52.4943 24.0448C53.9435 25.0099 55.1891 26.2554 56.1541 27.7046L54.7376 28.5225ZM35.9749 45.9276C35.6813 45.5195 35.3771 45.0975 34.9665 44.7523C34.5544 44.4064 34.0849 44.179 33.631 43.9599C33.1608 43.7317 32.7159 43.5166 32.4656 43.2189C32.217 42.9229 32.0821 42.4485 31.9389 41.9455C31.8007 41.4606 31.6576 40.9592 31.3877 40.4914C31.1211 40.0302 30.7588 39.6589 30.4096 39.2999C30.0432 38.9237 29.6964 38.5679 29.5615 38.1982C29.4323 37.8408 29.4674 37.351 29.5059 36.8325C29.5427 36.327 29.5811 35.8036 29.4879 35.2671C29.3963 34.7478 29.1853 34.2784 28.9817 33.8253C28.7649 33.3428 28.5597 32.8872 28.5597 32.4849C28.5597 32.0825 28.7649 31.627 28.9817 31.1436C29.1853 30.6897 29.3963 30.2211 29.4879 29.701C29.5819 29.1645 29.5435 28.6411 29.5059 28.1348C29.4683 27.6171 29.4323 27.1273 29.5623 26.7699C29.6973 26.3994 30.044 26.0436 30.4104 25.6674C30.7604 25.3092 31.1211 24.9379 31.3877 24.4767C31.6584 24.0097 31.8015 23.5075 31.9398 23.0217C32.0829 22.5188 32.2178 22.0444 32.4664 21.7484C32.7167 21.4515 33.1616 21.2364 33.6318 21.0082C34.0857 20.7907 34.5552 20.5633 34.9674 20.2174C35.3779 19.8723 35.6813 19.4503 35.9749 19.0422C36.2816 18.6161 36.5711 18.2145 36.9097 18.0191C37.2409 17.8269 37.7308 17.777 38.2501 17.7238C38.7523 17.6723 39.2724 17.6183 39.7811 17.4335C40.2792 17.2519 40.7069 16.9616 41.1191 16.6811C41.555 16.385 41.9672 16.1045 42.3597 16.0358C42.7253 15.972 43.2021 16.0906 43.7043 16.2174C44.1974 16.3425 44.7094 16.4717 45.2598 16.4717C45.8094 16.4717 46.3213 16.3425 46.8161 16.2174C47.3174 16.0914 47.791 15.972 48.1614 16.0358C48.5532 16.1045 48.9654 16.385 49.4021 16.6819C49.8151 16.9624 50.2412 17.2519 50.7401 17.4335C51.2488 17.6191 51.7689 17.6723 52.2711 17.7238C52.7904 17.777 53.2794 17.8277 53.6123 18.0199C53.9501 18.2153 54.2396 18.6169 54.5454 19.043C54.8382 19.4503 55.1425 19.8731 55.553 20.2174C55.9652 20.5633 56.4346 20.7907 56.8885 21.0099C57.3588 21.238 57.8037 21.4531 58.0539 21.7508C58.3026 22.0469 58.4375 22.5212 58.5806 23.0242C58.7188 23.5092 58.862 24.0105 59.1318 24.4783C59.3985 24.9395 59.7608 25.3108 60.11 25.6699C60.4764 26.0461 60.8231 26.4018 60.9581 26.7715C61.0873 27.1289 61.0521 27.6188 61.0137 28.1373C60.9769 28.6427 60.9384 29.1661 61.0317 29.7026C61.1233 30.2219 61.3343 30.6914 61.5379 31.1444C61.7546 31.627 61.9599 32.0825 61.9599 32.4849C61.9599 32.8872 61.7546 33.3428 61.5379 33.8261C61.3343 34.28 61.1233 34.7486 61.0317 35.2688C60.9376 35.8053 60.9761 36.3287 61.0137 36.8349C61.0513 37.3526 61.0873 37.8425 60.9572 38.1999C60.8223 38.5704 60.4755 38.9261 60.1092 39.3023C59.7591 39.6605 59.3985 40.0318 59.1318 40.4931C58.8611 40.9601 58.718 41.4622 58.5798 41.948C58.4367 42.451 58.3018 42.9253 58.0531 43.2214C57.8029 43.5182 57.358 43.7333 56.8877 43.9615C56.4338 44.1807 55.9644 44.408 55.5522 44.754C55.1416 45.0991 54.8382 45.5211 54.5446 45.9292C54.2379 46.3553 53.9484 46.7569 53.6098 46.9523C53.2786 47.1445 52.7887 47.1944 52.2694 47.2484C52.2678 47.2484 52.2653 47.2492 52.2637 47.2492C54.359 45.6217 55.8785 43.2917 56.4526 40.6084C58.44 40.3295 59.9808 38.6366 59.9808 36.574V34.9384C59.9808 26.8214 53.3768 20.2174 45.2598 20.2174C37.1428 20.2174 30.5388 26.8214 30.5388 34.9384V36.574C30.5388 38.6366 32.0796 40.3295 34.0669 40.6068C34.6411 43.2901 36.1606 45.6201 38.2551 47.2476C38.2526 47.2476 38.251 47.2467 38.2485 47.2467C37.7292 47.1936 37.2401 47.1429 36.9073 46.9507C36.5703 46.7544 36.2808 46.3528 35.9749 45.9276ZM37.8993 53.7485C37.8993 52.7802 37.7725 51.8364 37.5394 50.9196L40.0682 50.5303L45.2598 55.7227L50.4522 50.5303L54.9593 51.2239C58.1251 51.7113 60.788 54.0012 61.744 57.0583L63.7755 63.5625H57.4316L56.7029 57.7362L55.0803 57.9391L55.7828 63.5625H32.3168C35.6543 61.5596 37.8993 57.9162 37.8993 53.7485Z" fill="#02006C"/>
<path d="M40.3528 34.1205C40.8045 34.1205 41.1706 33.7544 41.1706 33.3027C41.1706 32.851 40.8045 32.4849 40.3528 32.4849C39.9011 32.4849 39.535 32.851 39.535 33.3027C39.535 33.7544 39.9011 34.1205 40.3528 34.1205Z" fill="#02006C"/>
<path d="M50.1668 34.1205C50.6184 34.1205 50.9846 33.7544 50.9846 33.3027C50.9846 32.851 50.6184 32.4849 50.1668 32.4849C49.7151 32.4849 49.3489 32.851 49.3489 33.3027C49.3489 33.7544 49.7151 34.1205 50.1668 34.1205Z" fill="#02006C"/>
<path d="M53.4381 59.4733H46.8954V61.1089H53.4381V59.4733Z" fill="#02006C"/>
<path d="M46.0776 42.2988V40.6631H44.4419V42.2988H42.8063V43.9344H44.4419V45.5701H46.0776V43.9344H47.7133V42.2988H46.0776Z" fill="#02006C"/>
<path d="M29.4552 46.3879H29.2409C28.4771 46.3879 27.7148 46.6022 26.9731 47.0258C26.5658 47.2581 26.3352 47.2589 25.9262 47.0258C25.1845 46.6022 24.4222 46.3879 23.6584 46.3879H23.4441C21.043 46.3879 19.0892 48.3417 19.0892 50.7437V51.3644C19.0892 53.0721 19.5537 54.7495 20.4329 56.2142C21.1583 57.4246 21.5427 58.81 21.5427 60.2224V60.6133C21.5427 61.7885 22.4987 62.7446 23.6739 62.7446C24.7281 62.7446 25.6351 61.9578 25.7848 60.9143L26.3253 57.1269C26.3425 57.005 26.5552 57.005 26.5731 57.1269L27.1137 60.9143C27.2634 61.9578 28.1704 62.7446 29.2254 62.7446C30.4006 62.7446 31.3566 61.7885 31.3566 60.6133V60.2224C31.3566 58.8108 31.741 57.4246 32.4664 56.2142C33.3456 54.7495 33.8101 53.0721 33.8101 51.3636V50.7429C33.8101 48.3417 31.8563 46.3879 29.4552 46.3879ZM32.1745 51.3644C32.1745 52.776 31.7901 54.1622 31.0647 55.3726C30.1855 56.8366 29.721 58.5139 29.721 60.2224V60.6133C29.721 60.8865 29.4985 61.1089 29.2254 61.1089C28.98 61.1089 28.7682 60.9257 28.7339 60.6828L28.1933 56.8954C28.0698 56.0334 27.3198 55.3841 26.4497 55.3841C25.5795 55.3841 24.8295 56.0334 24.706 56.8963L24.1654 60.6828C24.1311 60.9257 23.9193 61.1089 23.6739 61.1089C23.4008 61.1089 23.1783 60.8865 23.1783 60.6133V60.2224C23.1783 58.5147 22.7138 56.8374 21.8346 55.3726C21.1092 54.1614 20.7248 52.776 20.7248 51.3636V50.7429C20.7248 49.2438 21.9442 48.0236 23.4441 48.0236H23.6584C24.1344 48.0236 24.6243 48.1659 25.115 48.4456C26.0334 48.9715 26.8667 48.9707 27.7835 48.4464C28.2759 48.1659 28.7649 48.0236 29.2409 48.0236H29.4552C30.9551 48.0236 32.1745 49.2438 32.1745 50.7437V51.3644Z" fill="#02006C"/>
<path d="M28.5932 49.8678C27.1734 50.6767 25.7267 50.6767 24.302 49.8662L23.494 51.2876C24.4558 51.8355 25.4494 52.1128 26.4496 52.1128C27.4498 52.1128 28.4435 51.8355 29.4028 51.2892L28.5932 49.8678Z" fill="#02006C"/>
<path d="M24.5964 42.4485C24.1622 42.5188 23.7279 42.6161 23.3059 42.7364L23.7549 44.3091C24.1155 44.206 24.4868 44.1234 24.8581 44.0629L24.5964 42.4485Z" fill="#02006C"/>
<path d="M22.093 43.1567C21.707 43.3154 21.3276 43.497 20.9661 43.6949L21.752 45.1302C22.0612 44.9601 22.385 44.8055 22.7162 44.6697L22.093 43.1567Z" fill="#02006C"/>
</svg>
