<svg width="81" height="82" viewBox="0 0 81 82" fill="none" xmlns="http://www.w3.org/2000/svg">
<circle cx="40.5" cy="40.7898" r="39.65" stroke="#02006C" stroke-width="1.7"/>
<path d="M63.5806 44.5156H61.9677V37.4785C62.9685 36.3414 63.5806 34.8551 63.5806 33.2253V31.6124H61.9677V28.3866H60.3548V23.5479C60.3548 21.7688 58.9081 20.3221 57.129 20.3221C55.35 20.3221 53.9032 21.7688 53.9032 23.5479V25.1608H55.5161V23.5479C55.5161 22.6583 56.2395 21.935 57.129 21.935C58.0185 21.935 58.7419 22.6583 58.7419 23.5479V28.3866H57.129V31.6124H50.6774V33.2253C50.6774 36.7825 53.5718 39.6769 57.129 39.6769V44.5156H49.0645V38.064H47.4516V33.2253H46.6452V24.3543C46.6452 19.9075 43.0274 16.2898 38.5806 16.2898C34.1339 16.2898 30.5161 19.9075 30.5161 24.3543H26.4839V29.193H39.3871V24.3543H35.3548C35.3548 22.5753 36.8016 21.1285 38.5806 21.1285C40.3597 21.1285 41.8065 22.5753 41.8065 24.3543V33.2253H41V38.064H24.871V38.11L20.8387 35.2293V29.9995C20.8387 28.6656 19.7532 27.5801 18.4194 27.5801C17.0855 27.5801 16 28.6656 16 29.9995V37.2398C16 38.014 16.375 38.7471 17.0032 39.2011L28.3621 47.4051C28.8581 48.5495 29.9968 49.3543 31.3226 49.3543H31.404C31.779 51.1922 33.4073 52.5801 35.3548 52.5801H37.7742V61.4511H32.129C29.9056 61.4511 28.0968 63.26 28.0968 65.4833V66.2898H57.129V65.4833C57.129 63.26 55.3202 61.4511 53.0968 61.4511H47.4516V52.5801H49.871C51.8177 52.5801 53.4468 51.1922 53.8218 49.3543H63.5806C64.9145 49.3543 66 48.2688 66 46.935C66 45.6011 64.9145 44.5156 63.5806 44.5156ZM58.7419 29.9995H60.3548V31.6124H58.7419V29.9995ZM52.2903 33.2253H61.9677C61.9677 35.8938 59.7976 38.064 57.129 38.064C54.4605 38.064 52.2903 35.8938 52.2903 33.2253ZM60.3548 38.8043V44.5156H58.7419V39.4648C59.3145 39.3164 59.8556 39.0938 60.3548 38.8043ZM37.7742 25.9672V27.5801H28.0968V25.9672H37.7742ZM38.5806 19.5156C35.9121 19.5156 33.7419 21.6858 33.7419 24.3543H32.129C32.129 20.7971 35.0234 17.9027 38.5806 17.9027C42.1379 17.9027 45.0323 20.7971 45.0323 24.3543V33.2253H43.4194V24.3543C43.4194 21.6858 41.2492 19.5156 38.5806 19.5156ZM45.8387 34.8382V38.064H42.6129V34.8382H45.8387ZM47.4516 39.6769V44.5156H34.1C33.5887 43.639 32.6831 43.0333 31.6234 42.9333L27.0645 39.6769H47.4516ZM28.2153 45.3092L17.9476 37.893C17.7379 37.7422 17.6129 37.4971 17.6129 37.2398V29.9995C17.6129 29.5551 17.975 29.193 18.4194 29.193C18.8637 29.193 19.2258 29.5551 19.2258 29.9995V36.06L29.5532 43.4366C28.8992 43.868 28.421 44.5325 28.2153 45.3092ZM31.3226 47.7414C30.4331 47.7414 29.7097 47.018 29.7097 46.1285C29.7097 45.239 30.4331 44.5156 31.3226 44.5156C32.2121 44.5156 32.9355 45.239 32.9355 46.1285C32.9355 47.018 32.2121 47.7414 31.3226 47.7414ZM53.0968 63.064C54.1484 63.064 55.0452 63.7382 55.3782 64.6769H29.8476C30.1806 63.7382 31.0774 63.064 32.129 63.064H53.0968ZM39.3871 61.4511V52.5801H45.8387V61.4511H39.3871ZM63.5806 47.7414H49.0645V49.3543H52.1419C51.8081 50.2906 50.921 50.9672 49.871 50.9672H35.3548C34.3048 50.9672 33.4177 50.2906 33.0839 49.3543H47.4516V47.7414H34.1C34.3774 47.2648 34.5484 46.7188 34.5484 46.1285H63.5806C64.025 46.1285 64.3871 46.4898 64.3871 46.935C64.3871 47.3801 64.025 47.7414 63.5806 47.7414Z" fill="#02006C"/>
<path d="M55.5161 26.7737H53.9032V28.3866H55.5161V26.7737Z" fill="#02006C"/>
</svg>
