<svg width="81" height="82" viewBox="0 0 81 82" fill="none" xmlns="http://www.w3.org/2000/svg">
<circle cx="40.5" cy="40.7898" r="39.65" stroke="#02006C" stroke-width="1.7"/>
<path d="M47.8125 49.1023C47.2735 49.1023 46.8359 49.5398 46.8359 50.0789C46.8359 50.6179 47.2735 51.0554 47.8125 51.0554C48.3515 51.0554 48.7891 50.6179 48.7891 50.0789C48.7891 49.5398 48.3515 49.1023 47.8125 49.1023Z" fill="#02006C"/>
<path d="M26.7188 32.5007C27.2581 32.5007 27.6953 32.0636 27.6953 31.5242V27.6179C27.6953 27.0785 27.2581 26.6414 26.7188 26.6414C26.1794 26.6414 25.7422 27.0785 25.7422 27.6179V31.5242C25.7422 32.0636 26.1794 32.5007 26.7188 32.5007Z" fill="#02006C"/>
<path d="M61.0938 39.3367V31.5242C61.0938 28.8318 58.9034 26.6414 56.2109 26.6414H50.7422V19.2195C50.7422 17.604 49.428 16.2898 47.8125 16.2898H29.6484C28.0329 16.2898 26.7188 17.604 26.7188 19.2195V22.7351H23.7891C22.1735 22.7351 20.8594 24.0493 20.8594 25.6648V26.6414H19.8828C17.1904 26.6414 15 28.8318 15 31.5242V61.407C15 64.0994 17.1904 66.2898 19.8828 66.2898H49.7656C52.1235 66.2898 54.0965 64.6098 54.55 62.3835H56.2109C58.9034 62.3835 61.0938 60.1931 61.0938 57.5007V54.9617H62.0703C63.6858 54.9617 65 53.6475 65 52.032V43.2429C65 41.0891 63.2475 39.3367 61.0938 39.3367ZM63.0469 43.2429C63.0469 44.3217 62.1725 45.196 61.0938 45.196V41.2898C62.1706 41.2898 63.0469 42.166 63.0469 43.2429ZM56.2109 28.5945C57.8265 28.5945 59.1406 29.9086 59.1406 31.5242V45.196H54.6484V39.3367C54.6484 36.9788 52.9684 35.0058 50.7422 34.5523V28.5945H56.2109ZM28.6719 19.2195C28.6719 18.6808 29.1098 18.2429 29.6484 18.2429H47.8125C48.3511 18.2429 48.7891 18.6808 48.7891 19.2195V34.4539H44.2969V25.6648C44.2969 24.0493 42.9827 22.7351 41.3672 22.7351H28.6719V19.2195ZM38.4375 34.4539V24.6882H41.3672C41.9058 24.6882 42.3438 25.1262 42.3438 25.6648V34.4539H38.4375ZM32.5781 34.4539V24.6882H36.4844V34.4539H32.5781ZM22.8125 25.6648C22.8125 25.1262 23.2504 24.6882 23.7891 24.6882H30.625V34.4539H22.8125V25.6648ZM19.8828 28.5945H20.8594V34.4539H20.0919C18.4779 34.4539 16.9531 33.285 16.9531 31.5242C16.9531 29.9086 18.2673 28.5945 19.8828 28.5945ZM49.7656 64.3367H19.8828C18.2673 64.3367 16.9531 63.0225 16.9531 61.407V35.3701C17.8263 36.0206 18.923 36.407 20.0919 36.407H49.7656C51.3811 36.407 52.6953 37.7211 52.6953 39.3367V45.196H45.8594C44.2439 45.196 42.9297 46.5102 42.9297 48.1257V52.032C42.9297 53.6475 44.2439 54.9617 45.8594 54.9617H52.6953V61.407C52.6953 63.0225 51.3811 64.3367 49.7656 64.3367ZM59.1406 57.5007C59.1406 59.1163 57.8265 60.4304 56.2109 60.4304H54.6484V54.9617H59.1406V57.5007ZM62.0703 53.0085H45.8594C45.3207 53.0085 44.8828 52.5706 44.8828 52.032V48.1257C44.8828 47.5871 45.3207 47.1492 45.8594 47.1492H61.0938C61.7907 47.1492 62.4594 46.9668 63.0469 46.6262V52.032C63.0469 52.5706 62.6089 53.0085 62.0703 53.0085Z" fill="#02006C"/>
<path d="M56.2109 49.1023H51.7188C51.1794 49.1023 50.7422 49.5395 50.7422 50.0789C50.7422 50.6183 51.1794 51.0554 51.7188 51.0554H56.2109C56.7503 51.0554 57.1875 50.6183 57.1875 50.0789C57.1875 49.5395 56.7503 49.1023 56.2109 49.1023Z" fill="#02006C"/>
<path d="M29.34 43.2898H39.58V44.8498H29.34V43.2898ZM35.36 57.5698H33.56V47.9698H29.34V46.4098H39.58V47.9698H35.36V57.5698Z" fill="#02006C"/>
</svg>
