<svg width="25" height="24" viewBox="0 0 25 24" fill="none" xmlns="http://www.w3.org/2000/svg">
<path d="M22.0456 23.0702L22.0445 23.0698L18.3632 21.689C16.251 22.907 13.8583 23.4242 11.4199 23.1856C5.13773 22.5708 0.533509 17.0748 1.16365 10.926C1.79359 4.77906 7.42392 0.28261 13.705 0.89728C19.9851 1.51185 24.5922 7.01012 23.9623 13.157C23.7775 14.9602 23.14 16.7026 22.1145 18.2171L22.9949 22.2677C22.9949 22.2677 22.9949 22.2677 22.9949 22.2677C23.0504 22.5205 22.9589 22.7819 22.7581 22.9488L22.7575 22.9493C22.5582 23.1136 22.2863 23.159 22.0456 23.0702ZM17.912 20.3198L17.9128 20.3193C18.0493 20.2357 18.2089 20.2019 18.3625 20.217C18.4218 20.2228 18.4801 20.2351 18.5352 20.2518L18.5353 20.2514L18.5472 20.2559L21.3279 21.2997L20.6579 18.2156C20.6579 18.2154 20.6578 18.2152 20.6578 18.215C20.6156 18.0256 20.659 17.8239 20.7729 17.6653L20.7729 17.6652C21.7616 16.2886 22.3743 14.6836 22.5449 13.0183C23.0957 7.6439 19.07 2.8292 13.5613 2.29012C8.05152 1.75094 3.12972 5.69001 2.57894 11.0645C2.02836 16.4369 6.0529 21.2535 11.5626 21.7927C13.804 22.012 15.9995 21.5036 17.912 20.3198Z" fill="#4A4A4A" stroke="black" stroke-width="0.4"/>
</svg>
