<svg width="25" height="21" viewBox="0 0 25 21" fill="none" xmlns="http://www.w3.org/2000/svg">
<path d="M12.6065 20.3458C12.416 20.3458 12.2204 20.3208 12.0097 20.2693C11.933 20.2487 11.8768 20.2281 11.8212 20.2051L11.757 20.1821C11.6617 20.1502 11.5674 20.1154 11.4781 20.0689C11.3693 20.012 0.326721 14.1839 0.326721 7.48787C0.326721 3.24226 3.34891 0.0410156 7.35709 0.0410156C9.12546 0.0410156 11.1461 0.916799 12.6065 2.27483C14.0675 0.916799 16.0876 0.0410156 17.8565 0.0410156C21.8642 0.0410156 24.8869 3.24275 24.8869 7.48787C24.8869 14.1839 13.8443 20.012 13.733 20.0703C13.6447 20.1164 13.5514 20.1507 13.4566 20.1826C13.4536 20.1835 13.405 20.1997 13.4025 20.2012C13.3373 20.2286 13.2811 20.2492 13.2224 20.2649C12.9932 20.3208 12.7976 20.3458 12.6065 20.3458ZM7.35709 1.51078C4.20702 1.51078 1.83129 4.0803 1.83129 7.48738C1.83129 12.2961 9.50111 17.3729 12.1883 18.7716C12.2013 18.7775 12.2214 18.7829 12.2414 18.7897L12.3157 18.8147C12.3397 18.8231 12.3728 18.8363 12.4059 18.85C12.5153 18.877 12.6442 18.8863 12.8067 18.8495C12.8473 18.8334 12.8769 18.8216 12.907 18.8113L12.9707 18.7897C12.9907 18.7829 13.0118 18.7775 13.0313 18.7687C15.712 17.3724 23.3818 12.2961 23.3818 7.48689C23.3818 4.07932 21.0066 1.51029 17.856 1.51029C16.2832 1.51029 14.3604 2.4591 13.1798 3.81762C13.0369 3.9818 12.8267 4.07687 12.606 4.07687C12.3854 4.07687 12.1757 3.98229 12.0323 3.81762C10.8527 2.45959 8.92987 1.51078 7.35709 1.51078Z" fill="#ED5261"/>
<path d="M12.1125 2.73671L14.1186 2.49167L14.8709 1.26645L17.8801 0.776367L20.1369 1.26645L22.143 2.73671L23.8984 5.18714V8.86279L22.3938 12.0483L17.1278 17.1942L12.6141 19.6447L11.3603 19.1546L7.0973 16.2141L2.08206 11.8033L1.07901 5.92227L2.83434 2.24663L7.0973 0.776367L12.1125 2.73671Z" fill="#ED5261"/>
</svg>
